# Blender v2.82 (sub 7) OBJ File: 'Mortar.blend'
# www.blender.org
mtllib Mortar.mtl
o MortarBase_Cube
v 1.000000 1.445122 1.000000
v 1.000000 0.438614 1.000000
v 1.000000 1.130376 1.999631
v 1.000000 0.438614 1.999631
v 1.000000 1.445122 0.500000
v 0.500000 1.445122 1.000000
v 0.500000 1.083238 0.500000
v 1.000000 0.438614 1.499816
v 0.157214 0.438614 0.735918
v 0.842786 0.438614 0.735918
v 0.842786 0.438614 1.763897
v 0.157214 0.438614 1.763897
v 0.157214 0.322722 0.735918
v 0.842786 0.322722 0.735918
v 0.842786 0.322722 1.763897
v 0.157214 0.322722 1.763897
v 0.157214 0.081691 0.999013
v 0.842786 0.081691 0.999013
v 0.842786 0.081691 1.500803
v 0.157214 0.081691 1.500803
v -1.000000 1.445122 1.000000
v -1.000000 0.438614 1.000000
v -1.000000 1.130376 1.999631
v -1.000000 0.438614 1.999631
v 0.000000 1.445122 1.000000
v 0.000000 1.130376 1.999631
v 0.000000 0.438614 1.000000
v 0.000000 1.130376 1.999631
v 0.000000 0.438614 1.999631
v -1.000000 1.445122 0.500000
v 0.000000 1.083238 0.500000
v -0.500000 1.445122 1.000000
v -0.500000 1.083238 0.500000
v -1.000000 0.438614 1.499816
v 0.000000 0.438614 1.499816
v -0.157214 0.438614 0.735918
v -0.842786 0.438614 0.735918
v -0.842786 0.438614 1.763897
v -0.157214 0.438614 1.763897
v -0.157214 0.322722 0.735918
v -0.842786 0.322722 0.735918
v -0.842786 0.322722 1.763897
v -0.157214 0.322722 1.763897
v -0.157214 0.081691 0.999013
v -0.842786 0.081691 0.999013
v -0.842786 0.081691 1.500803
v -0.157214 0.081691 1.500803
v 1.000000 0.438614 0.000000
v 1.000000 1.445122 0.000000
v 1.000000 1.445122 -1.000000
v 1.000000 0.438614 -1.000000
v 1.000000 1.130376 -1.999631
v 1.000000 0.438614 -1.999631
v 1.000000 1.445122 -0.500000
v 0.500000 1.445122 -1.000000
v 0.500000 1.083238 0.000000
v 0.500000 1.083238 -0.500000
v 1.000000 0.438614 -1.499816
v 0.157214 0.438614 -0.735918
v 0.842786 0.438614 -0.735918
v 0.842786 0.438614 -1.763897
v 0.157214 0.438614 -1.763897
v 0.157214 0.322722 -0.735918
v 0.842786 0.322722 -0.735918
v 0.842786 0.322722 -1.763897
v 0.157214 0.322722 -1.763897
v 0.157214 0.081691 -0.999013
v 0.842786 0.081691 -0.999013
v 0.842786 0.081691 -1.500803
v 0.157214 0.081691 -1.500803
v -1.000000 0.438614 0.000000
v -1.000000 1.445122 0.000000
v -1.000000 1.445122 -1.000000
v -1.000000 0.438614 -1.000000
v -1.000000 1.130376 -1.999631
v -1.000000 0.438614 -1.999631
v 0.000000 1.083238 0.000000
v 0.000000 1.445122 -1.000000
v 0.000000 1.130376 -1.999631
v 0.000000 0.438614 -1.000000
v 0.000000 1.130376 -1.999631
v 0.000000 0.438614 -1.999631
v 0.000000 0.438614 0.000000
v 0.000000 0.438614 0.000000
v -1.000000 1.445122 -0.500000
v 0.000000 1.083238 -0.500000
v -0.500000 1.445122 -1.000000
v -0.500000 1.083238 0.000000
v -0.500000 1.083238 -0.500000
v -1.000000 0.438614 -1.499816
v 0.000000 0.438614 -1.499816
v -0.157214 0.438614 -0.735918
v -0.842786 0.438614 -0.735918
v -0.842786 0.438614 -1.763897
v -0.157214 0.438614 -1.763897
v -0.157214 0.322722 -0.735918
v -0.842786 0.322722 -0.735918
v -0.842786 0.322722 -1.763897
v -0.157214 0.322722 -1.763897
v -0.157214 0.081691 -0.999013
v -0.842786 0.081691 -0.999013
v -0.842786 0.081691 -1.500803
v -0.157214 0.081691 -1.500803
vt 0.625000 0.750000
vt 0.375000 0.750000
vt 0.375000 0.750000
vt 0.625000 0.750000
vt 0.625000 0.750000
vt 0.625000 0.750000
vt 0.375000 0.750000
vt 0.375000 0.750000
vt 0.625000 0.750000
vt 0.625000 0.750000
vt 0.625000 0.750000
vt 0.625000 0.750000
vt 0.625000 0.750000
vt 0.625000 0.750000
vt 0.625000 0.750000
vt 0.375000 0.750000
vt 0.375000 0.750000
vt 0.375000 0.750000
vt 0.375000 0.750000
vt 0.625000 0.750000
vt 0.375000 0.750000
vt 0.375000 0.750000
vt 0.375000 0.750000
vt 0.000000 0.000000
vt 0.375000 0.750000
vt 0.375000 0.750000
vt 0.375000 0.750000
vt 0.375000 0.750000
vt 0.375000 0.750000
vt 0.375000 0.750000
vt 0.375000 0.750000
vt 0.375000 0.750000
vt 0.625000 0.750000
vt 0.625000 0.750000
vt 0.625000 0.750000
vt 0.375000 0.750000
vt 0.375000 0.750000
vt 0.375000 0.750000
vt 0.375000 0.750000
vt 0.625000 0.750000
vt 0.625000 0.750000
vt 0.625000 0.750000
vt 0.625000 0.750000
vt 0.375000 0.750000
vt 0.375000 0.750000
vt 0.375000 0.750000
vt 0.375000 0.750000
vt 0.375000 0.750000
vt 0.375000 0.750000
vt 0.375000 0.750000
vt 0.375000 0.750000
vt 0.375000 0.750000
vt 0.375000 0.750000
vt 0.375000 0.750000
vt 0.375000 0.750000
vt 0.625000 0.750000
vt 0.625000 0.750000
vt 0.375000 0.750000
vt 0.375000 0.750000
vt 0.375000 0.750000
vt 0.625000 0.750000
vt 0.625000 0.750000
vt 0.625000 0.750000
vt 0.625000 0.750000
vt 0.625000 0.750000
vt 0.625000 0.750000
vt 0.375000 0.750000
vt 0.375000 0.750000
vt 0.375000 0.750000
vt 0.375000 0.750000
vt 0.625000 0.750000
vt 0.375000 0.750000
vt 0.375000 0.750000
vt 0.375000 0.750000
vt 0.375000 0.750000
vt 0.375000 0.750000
vt 0.375000 0.750000
vt 0.375000 0.750000
vt 0.375000 0.750000
vt 0.375000 0.750000
vt 0.375000 0.750000
vt 0.375000 0.750000
vt 0.625000 0.750000
vt 0.375000 0.750000
vt 0.625000 0.750000
vt 0.625000 0.750000
vt 0.375000 0.750000
vt 0.375000 0.750000
vt 0.625000 0.750000
vt 0.625000 0.750000
vt 0.375000 0.750000
vt 0.375000 0.750000
vt 0.375000 0.750000
vt 0.375000 0.750000
vt 0.375000 0.750000
vt 0.375000 0.750000
vt 0.375000 0.750000
vt 0.375000 0.750000
vt 0.375000 0.750000
vt 0.375000 0.750000
vt 0.375000 0.750000
vt 0.375000 0.750000
vn 1.0000 0.0000 0.0000
vn 0.0000 0.9538 0.3003
vn 0.0000 1.0000 0.0000
vn 0.0000 -1.0000 0.0000
vn 0.0000 0.0000 1.0000
vn 0.0000 0.8101 -0.5863
vn -0.3221 0.8902 -0.3221
vn -0.5863 0.8101 0.0000
vn -1.0000 0.0000 -0.0000
vn 0.0000 0.0000 -1.0000
vn 0.0000 -0.7373 0.6755
vn 0.0000 -0.7373 -0.6755
vn 0.3221 0.8902 -0.3221
vn 0.5863 0.8101 0.0000
vn 0.0000 0.9538 -0.3003
vn 0.0000 0.8101 0.5863
vn -0.3221 0.8902 0.3221
vn 0.3221 0.8902 0.3221
usemtl Material
s off
f 1/1/1 2/2/1 48/3/1 49/4/1 5/5/1
f 2/2/1 1/1/1 3/6/1 4/7/1 8/8/1
f 3/6/2 1/1/2 6/9/2 25/10/2 26/11/2
f 7/12/3 56/13/3 77/14/3 31/15/3
f 8/8/4 4/7/4 29/16/4 35/17/4 12/18/4 11/19/4
f 4/7/5 3/6/5 28/20/5 29/16/5
f 48/3/4 2/2/4 10/21/4 9/22/4 27/23/4 84/24/4
f 6/9/6 7/12/6 31/15/6 25/10/6
f 1/1/7 5/5/7 7/12/7 6/9/7
f 5/5/8 49/4/8 56/13/8 7/12/8
f 9/22/4 12/18/4 35/17/4 27/23/4
f 2/2/4 8/8/4 11/19/4 10/21/4
f 12/18/9 9/22/9 13/25/9 16/26/9
f 16/26/9 13/25/9 17/27/9 20/28/9
f 11/19/5 12/18/5 16/26/5 15/29/5
f 9/22/10 10/21/10 14/30/10 13/25/10
f 10/21/1 11/19/1 15/29/1 14/30/1
f 18/31/4 19/32/4 20/28/4 17/27/4
f 15/29/11 16/26/11 20/28/11 19/32/11
f 14/30/1 15/29/1 19/32/1 18/31/1
f 13/25/12 14/30/12 18/31/12 17/27/12
f 21/33/9 30/34/9 72/35/9 71/36/9 22/37/9
f 22/37/9 34/38/9 24/39/9 23/40/9 21/33/9
f 23/40/2 26/11/2 25/10/2 32/41/2 21/33/2
f 33/42/3 31/15/3 77/14/3 88/43/3
f 34/38/4 38/44/4 39/45/4 35/17/4 29/16/4 24/39/4
f 24/39/5 29/16/5 28/20/5 23/40/5
f 71/36/4 84/24/4 27/23/4 36/46/4 37/47/4 22/37/4
f 32/41/6 25/10/6 31/15/6 33/42/6
f 21/33/13 32/41/13 33/42/13 30/34/13
f 30/34/14 33/42/14 88/43/14 72/35/14
f 36/46/4 27/23/4 35/17/4 39/45/4
f 22/37/4 37/47/4 38/44/4 34/38/4
f 39/45/1 43/48/1 40/49/1 36/46/1
f 43/48/1 47/50/1 44/51/1 40/49/1
f 38/44/5 42/52/5 43/48/5 39/45/5
f 36/46/10 40/49/10 41/53/10 37/47/10
f 37/47/9 41/53/9 42/52/9 38/44/9
f 45/54/4 44/51/4 47/50/4 46/55/4
f 42/52/11 46/55/11 47/50/11 43/48/11
f 41/53/9 45/54/9 46/55/9 42/52/9
f 40/49/12 44/51/12 45/54/12 41/53/12
f 50/56/1 54/57/1 49/4/1 48/3/1 51/58/1
f 51/58/1 58/59/1 53/60/1 52/61/1 50/56/1
f 52/61/15 79/62/15 78/63/15 55/64/15 50/56/15
f 57/65/3 86/66/3 77/14/3 56/13/3
f 58/59/4 61/67/4 62/68/4 91/69/4 82/70/4 53/60/4
f 53/60/10 82/70/10 81/71/10 52/61/10
f 48/3/4 84/24/4 80/72/4 59/73/4 60/74/4 51/58/4
f 55/64/16 78/63/16 86/66/16 57/65/16
f 50/56/17 55/64/17 57/65/17 54/57/17
f 54/57/8 57/65/8 56/13/8 49/4/8
f 59/73/4 80/72/4 91/69/4 62/68/4
f 51/58/4 60/74/4 61/67/4 58/59/4
f 62/68/9 66/75/9 63/76/9 59/73/9
f 66/75/9 70/77/9 67/78/9 63/76/9
f 61/67/10 65/79/10 66/75/10 62/68/10
f 59/73/5 63/76/5 64/80/5 60/74/5
f 60/74/1 64/80/1 65/79/1 61/67/1
f 68/81/4 67/78/4 70/77/4 69/82/4
f 65/79/12 69/82/12 70/77/12 66/75/12
f 64/80/1 68/81/1 69/82/1 65/79/1
f 63/76/11 67/78/11 68/81/11 64/80/11
f 73/83/9 74/84/9 71/36/9 72/35/9 85/85/9
f 74/84/9 73/83/9 75/86/9 76/87/9 90/88/9
f 75/86/15 73/83/15 87/89/15 78/63/15 79/62/15
f 89/90/3 88/43/3 77/14/3 86/66/3
f 90/88/4 76/87/4 82/70/4 91/69/4 95/91/4 94/92/4
f 76/87/10 75/86/10 81/71/10 82/70/10
f 71/36/4 74/84/4 93/93/4 92/94/4 80/72/4 84/24/4
f 87/89/16 89/90/16 86/66/16 78/63/16
f 73/83/18 85/85/18 89/90/18 87/89/18
f 85/85/14 72/35/14 88/43/14 89/90/14
f 92/94/4 95/91/4 91/69/4 80/72/4
f 74/84/4 90/88/4 94/92/4 93/93/4
f 95/91/1 92/94/1 96/95/1 99/96/1
f 99/96/1 96/95/1 100/97/1 103/98/1
f 94/92/10 95/91/10 99/96/10 98/99/10
f 92/94/5 93/93/5 97/100/5 96/95/5
f 93/93/9 94/92/9 98/99/9 97/100/9
f 101/101/4 102/102/4 103/98/4 100/97/4
f 98/99/12 99/96/12 103/98/12 102/102/12
f 97/100/9 98/99/9 102/102/9 101/101/9
f 96/95/11 97/100/11 101/101/11 100/97/11
l 48 83
l 71 83
o MortarBarrel_Cylinder
v 0.000000 1.201857 -0.730749
v 0.000000 2.154800 -0.475409
v 0.441485 1.154527 -0.554112
v 0.441485 2.107471 -0.298771
v 0.624353 1.040262 -0.127670
v 0.624353 1.993206 0.127670
v 0.441485 0.925998 0.298771
v 0.441485 1.878941 0.554112
v -0.000000 0.878668 0.475409
v -0.000000 1.831611 0.730749
v -0.441485 0.925998 0.298771
v -0.441485 1.878941 0.554111
v -0.624353 1.040262 -0.127670
v -0.624353 1.993206 0.127670
v -0.441485 1.154527 -0.554111
v -0.441485 2.107471 -0.298771
vt 1.000000 0.500000
vt 1.000000 1.000000
vt 0.875000 1.000000
vt 0.875000 0.500000
vt 0.750000 1.000000
vt 0.750000 0.500000
vt 0.625000 1.000000
vt 0.625000 0.500000
vt 0.500000 1.000000
vt 0.500000 0.500000
vt 0.375000 1.000000
vt 0.375000 0.500000
vt 0.250000 1.000000
vt 0.250000 0.500000
vt 0.419706 0.419706
vt 0.250000 0.490000
vt 0.080294 0.419706
vt 0.010000 0.250000
vt 0.080294 0.080294
vt 0.250000 0.010000
vt 0.419706 0.080294
vt 0.490000 0.250000
vt 0.125000 1.000000
vt 0.125000 0.500000
vt 0.000000 1.000000
vt 0.000000 0.500000
vt 0.750000 0.490000
vt 0.919706 0.419706
vt 0.990000 0.250000
vt 0.919706 0.080294
vt 0.750000 0.010000
vt 0.580294 0.080294
vt 0.510000 0.250000
vt 0.580294 0.419706
vn 0.3827 0.2391 -0.8924
vn 0.9239 0.0990 -0.3696
vn 0.9239 -0.0990 0.3696
vn 0.3827 -0.2391 0.8924
vn -0.3827 -0.2391 0.8924
vn -0.9239 -0.0990 0.3696
vn 0.0000 0.9659 0.2588
vn -0.9239 0.0990 -0.3696
vn -0.3827 0.2391 -0.8924
vn 0.0000 -0.9659 -0.2588
usemtl None
s off
f 104/103/19 105/104/19 107/105/19 106/106/19
f 106/106/20 107/105/20 109/107/20 108/108/20
f 108/108/21 109/107/21 111/109/21 110/110/21
f 110/110/22 111/109/22 113/111/22 112/112/22
f 112/112/23 113/111/23 115/113/23 114/114/23
f 114/114/24 115/113/24 117/115/24 116/116/24
f 107/117/25 105/118/25 119/119/25 117/120/25 115/121/25 113/122/25 111/123/25 109/124/25
f 116/116/26 117/115/26 119/125/26 118/126/26
f 118/126/27 119/125/27 105/127/27 104/128/27
f 104/129/28 106/130/28 108/131/28 110/132/28 112/133/28 114/134/28 116/135/28 118/136/28
